HIERARCHY
ROOT Hips
{
	OFFSET 0.000000 0.000000 0.000000 
	CHANNELS 6 Xposition Yposition Zposition Yrotation Zrotation Xrotation 
	JOINT Lumbar
	{
		OFFSET 0.000000 0.000000 0.000000 
		CHANNELS 3 Zrotation Xrotation Yrotation
		JOINT Neck
		{
			OFFSET 0.000000 0.445665 0.000000 
			CHANNELS 3 Zrotation Xrotation Yrotation
			End Site
			{
				OFFSET 0.000000 0.227535 0.000000 
			}
		}
		JOINT RightShoulder
		{
			OFFSET 0.019635 0.377685 0.194865 
			CHANNELS 3 Zrotation Xrotation Yrotation
			JOINT RightElbow
			{
				OFFSET 0.000000 -0.243375 0.000000 
				CHANNELS 2 Zrotation Yrotation
				JOINT RightWrist
				{
					OFFSET 0.000000 -0.264825 0.000000 
					CHANNELS 2 Zrotation Xrotation
					End Site
					{
						OFFSET 0.006600 -0.176220 0.000990 
					}
				}
			}
		}
		JOINT LeftShoulder
		{
			OFFSET 0.019635 0.377685 -0.194865 
			CHANNELS 3 Zrotation Xrotation Yrotation
			JOINT LeftElbow
			{
				OFFSET 0.000000 -0.243375 0.000000 
				CHANNELS 2 Zrotation Yrotation
				JOINT LeftWrist
				{
					OFFSET 0.000000 -0.264825 0.000000 
					CHANNELS 2 Zrotation Xrotation
					End Site
					{
						OFFSET 0.006600 -0.176220 -0.000990 
					}
				}
			}
		}
	}
	JOINT RightHip
	{
		OFFSET 0.052140 -0.069960 0.075570 
		CHANNELS 3 Zrotation Xrotation Yrotation
		JOINT RightKnee
		{
			OFFSET 0.000000 -0.402270 0.000000 
			CHANNELS 1 Zrotation
			JOINT RightAnkle
			{
				OFFSET 0.000000 -0.404085 0.000000 
				CHANNELS 3 Zrotation Xrotation Yrotation
				End Site
				{
					OFFSET 0.204105 -0.089430 0.008415 
				}
			}
		}
	}
	JOINT LeftHip
	{
		OFFSET 0.052140 -0.069960 -0.075570 
		CHANNELS 3 Zrotation Xrotation Yrotation
		JOINT LeftKnee
		{
			OFFSET 0.000000 -0.402270 0.000000 
			CHANNELS 1 Zrotation
			JOINT LeftAnkle
			{
				OFFSET 0.000000 -0.404085 0.000000 
				CHANNELS 3 Zrotation Xrotation Yrotation
				End Site
				{
					OFFSET 0.204105 -0.089430 -0.008415 
				}
			}
		}
	}
}
MOTION
Frames: 29
Frame Time: 0.02
0 0.95578 1e-05 172.86307 0 -5.80757 12.16449 7.73418 -0.64057 -27.30097 0.21827 1.25035 20.12276 -15.18598 4.81781 7.83684 82.58317 1.0867 -1.37053 21.73035 16.10018 -20.25534 13.38676 -82.69377 1.92015 1.84009 -2.24218 6.6914 -1.82969 -8.47009 -11.1839 -1.73991 -8.58422 -7.10729 9.51984 19.13651 -4.34985 -3.49414 2.76866 7.79334
-0.00013 0.95558 -0.00111 172.40167 0 -5.84199 11.96866 7.89355 -0.68119 -27.33878 0.19011 1.25151 20.05341 -14.99764 4.28288 7.91757 82.49749 0.80315 -1.43718 21.66873 16.15249 -20.65157 12.88635 -82.71065 1.63144 1.62825 -2.0035 6.78934 -1.45182 -8.86034 -10.89598 -1.78984 -8.73925 -7.49288 9.50098 19.5636 -3.82145 -3.68722 2.70652 7.60112
-0.00025 0.95537 -0.00224 171.94344 0 -5.87624 11.77295 8.05124 -0.72371 -27.37817 0.16321 1.25227 19.98666 -14.81003 3.75373 7.9989 82.41212 0.52025 -1.50416 21.60804 16.20393 -21.03829 12.38838 -82.72689 1.34303 1.41791 -1.76651 6.88801 -1.07363 -9.24831 -10.61028 -1.84018 -8.89558 -7.8761 9.48347 19.9879 -3.29651 -3.87964 2.64485 7.41003
-0.00038 0.95516 -0.00342 171.49319 0 -5.90998 11.57753 8.20388 -0.77414 -27.42384 0.14044 1.24977 19.93025 -14.62276 3.24203 8.08232 82.3271 0.23998 -1.57053 21.54931 16.25198 -21.39243 11.8935 -82.74066 1.05192 1.21005 -1.53314 6.98821 -0.70251 -9.63232 -10.32726 -1.88888 -9.0474 -8.25429 9.46958 20.40501 -2.77905 -4.07115 2.58484 7.22149
-0.00051 0.95496 -0.00433 171.0004 0 -5.94625 11.38264 8.38341 -0.78259 -27.43569 0.09506 1.26254 19.81978 -14.43282 2.63739 8.15337 82.24016 -0.05088 -1.63704 21.47878 16.31747 -21.92116 11.38011 -82.76743 0.77381 0.98729 -1.27963 7.07752 -0.30827 -10.03894 -10.02601 -1.94177 -9.20975 -8.65998 9.43458 20.85999 -2.22047 -4.26725 2.51651 7.01935
-0.00064 0.95474 -0.00583 170.59826 0 -5.97721 11.18542 8.50577 -0.87983 -27.51943 0.09806 1.24436 19.82328 -14.24931 2.23026 8.25137 82.15741 -0.32131 -1.70528 21.43423 16.3464 -22.07873 10.90783 -82.76671 0.4694 0.79745 -1.06964 7.19165 0.04639 -10.39622 -9.76639 -1.9888 -9.35872 -9.00652 9.44557 21.23454 -1.75045 -4.45361 2.46554 6.84621
-0.00084 0.95447 -0.00895 170.44361 0 -5.99306 10.98776 8.46902 -1.23415 -27.80871 0.23516 1.1252 20.15763 -14.07394 2.37387 8.42184 82.08386 -0.52129 -1.76207 21.45527 16.26836 -21.18629 10.52773 -82.68691 0.07311 0.68658 -0.97272 7.36361 0.2121 -10.6312 -9.59462 -1.99318 -9.39428 -9.19766 9.5779 21.38792 -1.51286 -4.61594 2.46561 6.7511
-0.00104 0.95418 -0.0127 170.38122 0 -6.00356 10.7863 8.3748 -1.67628 -28.16977 0.42104 0.97734 20.60467 -13.90672 2.71548 8.61994 82.0149 -0.70312 -1.82317 21.50392 16.15458 -19.92095 10.19261 -82.57978 -0.3467 0.6109 -0.92104 7.56247 0.35018 -10.81379 -9.46914 -1.99555 -9.42831 -9.32748 9.7579 21.45979 -1.36704 -4.76805 2.48276 6.6855
-0.00122 0.95389 -0.0162 170.27782 0 -6.0169 10.58261 8.30756 -2.07099 -28.49359 0.58465 0.8528 20.98981 -13.74169 2.96402 8.80707 81.94522 -0.90301 -1.89351 21.54367 16.06078 -18.84362 9.85033 -82.48725 -0.7437 0.52694 -0.85304 7.75658 0.55614 -11.01187 -9.34064 -2.01727 -9.51559 -9.48084 9.91995 21.56895 -1.18633 -4.92327 2.48991 6.60768
-0.00148 0.95361 -0.01953 170.16901 0 -6.02881 10.39623 8.23646 -2.49746 -28.83617 0.7492 0.68566 21.4191 -13.55143 3.22805 8.98802 81.86968 -1.06271 -1.91851 21.56708 15.9506 -17.69553 9.45209 -82.3859 -1.19162 0.41097 -0.76675 7.92035 0.53883 -11.24606 -9.13838 -1.96506 -9.38982 -9.65381 10.06622 21.67835 -0.97526 -5.08518 2.50598 6.52499
-0.00156 0.95332 -0.02337 170.09534 0 -6.04206 10.17215 8.16005 -2.8785 -29.1576 0.92272 0.59944 21.78437 -13.4161 3.50377 9.18773 81.80756 -1.30021 -2.03656 21.6323 15.8668 -16.59692 9.18103 -82.29595 -1.53928 0.36939 -0.72982 8.15213 0.96709 -11.39127 -9.0979 -2.06147 -9.69643 -9.76964 10.25679 21.76622 -0.85131 -5.23042 2.50818 6.45927
-0.00114 0.95302 -0.02845 170.07974 0 -6.06332 9.85072 8.08054 -3.11418 -29.39603 1.11491 0.75207 21.93565 -13.42744 3.78985 9.43849 81.78028 -1.77065 -2.43094 21.79639 15.85861 -15.80797 9.2508 -82.24839 -1.60252 0.52976 -0.81312 8.57837 2.74021 -11.31539 -9.51684 -2.61079 -11.28921 -9.75605 10.55671 21.82638 -0.92996 -5.33445 2.46227 6.43671
-0.00053 0.95271 -0.03402 170.09976 0 -6.08542 9.49016 7.99827 -3.30088 -29.61217 1.31331 0.98552 22.02065 -13.49483 4.07602 9.7061 81.76645 -2.31725 -2.91487 22.00379 15.87956 -15.06803 9.44702 -82.21254 -1.56425 0.76265 -0.94522 9.06936 4.94036 -11.14986 -10.09226 -3.30188 -13.29828 -9.68346 10.89959 21.86374 -1.09771 -5.42128 2.40284 6.43089
0 0.9524 -0.03937 170.11375 0 -6.10532 9.14397 7.91875 -3.50895 -29.84295 1.50509 1.17651 22.14201 -13.53787 4.34459 9.96198 81.74731 -2.8203 -3.34455 22.1974 15.89074 -14.24995 9.58475 -82.16843 -1.57387 0.95911 -1.05859 9.52238 6.87722 -11.01725 -10.5806 -3.90054 -15.05875 -9.6306 11.2239 21.90598 -1.23268 -5.51493 2.35329 6.4134
0.00049 0.95208 -0.04476 170.0865 0 -6.13323 8.813 7.83037 -3.72366 -30.0566 1.71479 1.39084 22.24001 -13.5744 4.69372 10.23579 81.72539 -3.36132 -3.83213 22.36573 15.88494 -13.64804 9.72782 -82.13543 -1.57752 1.17205 -1.16001 10.01361 9.11454 -10.9146 -11.13899 -4.61743 -17.07719 -9.6102 11.54668 21.97565 -1.33131 -5.61391 2.28859 6.40859
0.00112 0.9518 -0.05016 170.15437 0 -6.14406 8.43992 7.76119 -3.91197 -30.30044 1.88779 1.57593 22.37066 -13.64028 4.87309 10.4762 81.71183 -3.84048 -4.21967 22.59833 15.92323 -12.62076 9.88989 -82.08287 -1.56841 1.36669 -1.29604 10.43879 10.8163 -10.73046 -11.58677 -5.12167 -18.64819 -9.50309 11.88119 21.97489 -1.53436 -5.69598 2.25196 6.38787
0.00201 0.9516 -0.05556 170.45932 0 -6.113 7.96959 7.74069 -4.03662 -30.62438 1.96 1.66198 22.59459 -13.75232 4.57606 10.61773 81.72329 -4.13975 -4.31462 22.98128 16.06543 -10.33813 10.06766 -81.97001 -1.55518 1.49945 -1.52641 10.67804 11.03637 -10.3303 -11.70199 -5.00531 -18.96209 -9.22062 12.2453 21.86509 -1.92939 -5.75166 2.29654 6.25854
0.00305 0.95145 -0.06094 170.86156 0 -6.0636 7.45617 7.74105 -4.13605 -30.97928 1.99468 1.71542 22.85404 -13.89648 4.10766 10.72549 81.742 -4.37261 -4.3049 23.42891 16.25341 -7.64168 10.26114 -81.83811 -1.53105 1.61009 -1.78772 10.84606 10.68631 -9.85378 -11.69861 -4.67028 -18.79883 -8.84342 12.61745 21.67277 -2.44035 -5.78808 2.36958 6.12295
0.00407 0.95127 -0.06628 171.22975 0 -6.01916 6.95666 7.73512 -4.24891 -31.32722 2.04468 1.78331 23.10718 -14.03903 3.72287 10.85009 81.75361 -4.62946 -4.33923 23.85948 16.42734 -5.18012 10.45088 -81.717 -1.50799 1.72626 -2.0276 11.03859 10.52769 -9.42114 -11.74145 -4.43397 -18.79825 -8.47803 12.98133 21.46365 -2.94613 -5.82266 2.42935 6.03086
0.0049 0.95108 -0.0719 171.55592 0 -5.98947 6.48097 7.71464 -4.35349 -31.65037 2.10129 1.85666 23.32274 -14.12629 3.31783 10.96862 81.78057 -4.91436 -4.39089 24.24548 16.57279 -2.51729 10.6303 -81.58621 -1.49888 1.86338 -2.30028 11.26691 10.65966 -8.9471 -11.82046 -4.2035 -19.03069 -8.24463 13.36862 21.47444 -3.25271 -5.90087 2.49044 5.77117
0.00615 0.95094 -0.07688 171.99272 0 -5.92407 5.9444 7.73062 -4.46782 -32.0253 2.13633 1.9085 23.61809 -14.33867 2.90947 11.09204 81.77858 -5.12498 -4.38128 24.7316 16.78926 -0.18112 10.83381 -81.47222 -1.45813 1.95153 -2.51142 11.4025 10.05789 -8.54171 -11.79608 -3.90946 -18.67181 -7.71185 13.70549 21.01856 -4.0028 -5.88448 2.55524 5.85455
0.00849 0.95089 -0.08026 172.70637 0 -5.76966 5.26332 7.83252 -4.6345 -32.5987 2.10972 1.92076 24.19126 -14.86232 2.57237 11.23249 81.68165 -5.13857 -4.22031 25.54083 17.18123 1.20645 11.09483 -81.39809 -1.34427 1.90161 -2.54435 11.30263 7.4596 -8.35038 -11.49592 -3.47218 -16.68431 -6.40066 13.92562 19.20128 -5.92616 -5.60639 2.62755 6.92111
0.01126 0.9509 -0.08298 173.5282 0 -5.57896 4.52014 7.97222 -4.80905 -33.21082 2.06411 1.91039 24.83101 -15.51536 2.22913 11.37967 81.55733 -5.08088 -4.00237 26.43551 17.64535 2.24181 11.37968 -81.34351 -1.1972 1.80416 -2.51424 11.11088 4.1608 -8.23009 -11.09859 -2.98158 -14.13663 -4.78822 14.08922 16.93363 -8.29303 -5.23493 2.70198 8.32479
0.01386 0.9509 -0.08591 174.30418 0 -5.40153 3.79716 8.10092 -4.96692 -33.76475 2.0354 1.90158 25.39781 -16.12626 1.86538 11.52692 81.45467 -5.06071 -3.81506 27.25142 18.0816 3.40173 11.65664 -81.28729 -1.05836 1.73374 -2.51314 10.95896 1.25282 -8.07402 -10.75761 -2.52876 -11.91774 -3.29611 14.26335 14.9346 -10.47493 -4.90961 2.77263 9.55391
0.01638 0.95082 -0.0892 175.07177 0 -5.23714 3.10686 8.2042 -5.17695 -34.49371 1.97319 1.92647 26.14798 -16.66825 1.60027 11.66033 81.31502 -5.01642 -3.60384 28.24313 18.49599 4.7226 11.92266 -81.19998 -0.94841 1.64038 -2.51137 10.81317 -1.98013 -7.93025 -10.36116 -2.01179 -9.37114 -1.86596 14.50473 12.667 -12.60195 -4.56757 2.85578 10.88065
0.01915 0.95091 -0.09159 175.87851 0 -5.03709 2.33386 8.3692 -5.28334 -34.86364 1.97334 1.87879 26.52913 -17.38374 1.12268 11.82395 81.24373 -5.00655 -3.43065 28.88198 18.97586 5.6234 12.21586 -81.18215 -0.77012 1.58291 -2.49598 10.63314 -4.69593 -7.77839 -10.05866 -1.61788 -7.37776 -0.24231 14.58882 10.8475 -14.93324 -4.23889 2.91351 12.07456
0.02256 0.95142 -0.09174 176.78923 0 -4.7488 1.35266 8.6946 -5.07694 -34.26146 2.1803 1.61388 25.89643 -18.55006 0.12685 12.075 81.38596 -5.1069 -3.37308 28.57822 19.58933 5.41577 12.58651 -81.35205 -0.41564 1.64285 -2.45517 10.38653 -5.80152 -7.59047 -10.04018 -1.58407 -7.07385 1.88995 14.28421 10.42448 -17.83445 -3.96714 2.89567 12.90306
0.02619 0.9521 -0.091 177.73056 0 -4.42593 0.29031 9.08059 -4.7701 -33.29212 2.44574 1.28083 24.88663 -19.8862 -1.09441 12.35534 81.59463 -5.24482 -3.35682 27.90693 20.27142 4.80446 12.98166 -81.59052 0.0068 1.73878 -2.40349 10.10821 -6.36026 -7.39166 -10.12004 -1.67571 -7.34477 4.19579 13.81769 10.46054 -20.9014 -3.71344 2.85263 13.57154
0.0297 0.95271 -0.09064 178.64322 0 -4.11784 -0.73879 9.43959 -4.52629 -32.47056 2.6644 0.99412 24.03434 -21.14156 -2.25532 12.6187 81.76084 -5.3677 -3.3244 27.36816 20.94131 4.39542 13.36064 -81.79804 0.40149 1.81479 -2.35849 9.84088 -7.17538 -7.19587 -10.15487 -1.7062 -7.33738 6.39185 13.4039 10.25311 -23.82014 -3.45243 2.82451 14.25715
